<svg width="640" height="420" viewBox="0 0 640 420" fill="none" xmlns="http://www.w3.org/2000/svg">
  <rect width="640" height="420" rx="36" fill="#050814"/>
  <rect x="24" y="24" width="592" height="372" rx="28" fill="url(#bg)"/>
  <circle cx="132" cy="302" r="110" fill="url(#glowA)" fill-opacity="0.55"/>
  <circle cx="514" cy="114" r="96" fill="url(#glowB)" fill-opacity="0.68"/>
  <rect x="74" y="72" width="492" height="276" rx="26" fill="#0B1022" fill-opacity="0.94" stroke="#2B3F74"/>
  <path d="M232 114L333 163V257L232 306L131 257V163L232 114Z" fill="#10192F" stroke="url(#hex)" stroke-width="8"/>
  <path d="M232 148L299 183V237L232 272L165 237V183L232 148Z" fill="#0D1630" stroke="#3B56A3"/>
  <path d="M399 132H492" stroke="#243559" stroke-width="12" stroke-linecap="round"/>
  <path d="M399 162H458" stroke="#243559" stroke-width="10" stroke-linecap="round"/>
  <path d="M399 248H492" stroke="#243559" stroke-width="12" stroke-linecap="round"/>
  <path d="M399 278H448" stroke="#243559" stroke-width="10" stroke-linecap="round"/>
  <circle cx="444" cy="208" r="36" fill="#111C38"/>
  <path d="M430 208L440 218L460 198" stroke="#53F2FF" stroke-width="8" stroke-linecap="round" stroke-linejoin="round"/>
  <path d="M197 216L223 242L268 197" stroke="#53F2FF" stroke-width="8" stroke-linecap="round" stroke-linejoin="round"/>
  <defs>
    <linearGradient id="bg" x1="38" y1="30" x2="610" y2="390" gradientUnits="userSpaceOnUse">
      <stop stop-color="#09111F"/>
      <stop offset="1" stop-color="#080C18"/>
    </linearGradient>
    <radialGradient id="glowA" cx="0" cy="0" r="1" gradientUnits="userSpaceOnUse" gradientTransform="translate(132 302) rotate(90) scale(110)">
      <stop stop-color="#45E8FF"/>
      <stop offset="1" stop-color="#45E8FF" stop-opacity="0"/>
    </radialGradient>
    <radialGradient id="glowB" cx="0" cy="0" r="1" gradientUnits="userSpaceOnUse" gradientTransform="translate(514 114) rotate(90) scale(96)">
      <stop stop-color="#8F5CFF"/>
      <stop offset="1" stop-color="#8F5CFF" stop-opacity="0"/>
    </radialGradient>
    <linearGradient id="hex" x1="131" y1="114" x2="333" y2="306" gradientUnits="userSpaceOnUse">
      <stop stop-color="#53F2FF"/>
      <stop offset="1" stop-color="#9C5BFF"/>
    </linearGradient>
  </defs>
</svg>
